<svg width="100" height="100" viewBox="0 0 100 100" fill="none" xmlns="http://www.w3.org/2000/svg">
<path d="M98.3595 14.4922C100.332 12.8125 100.547 9.84378 98.8673 7.89065C97.1876 5.93753 94.2189 5.70315 92.2657 7.38284L62.5392 32.8711L40.586 13.6524C38.9845 12.2657 36.6603 12.1094 34.9025 13.2813L2.08995 35.1563C-0.0584872 36.6016 -0.644425 39.5117 0.781357 41.6602C2.20714 43.8086 5.13683 44.3946 7.28526 42.9688L37.1095 23.086L59.4142 42.5977C61.172 44.1407 63.7892 44.1407 65.547 42.6367L98.3595 14.5117V14.4922ZM39.0626 84.375C39.0626 85.2344 38.3595 85.9375 37.5001 85.9375C36.6407 85.9375 35.9376 85.2344 35.9376 84.375V53.125C35.9376 52.2657 36.6407 51.5625 37.5001 51.5625C38.3595 51.5625 39.0626 52.2657 39.0626 53.125V84.375ZM37.5001 43.75C32.3243 43.75 28.1251 47.9492 28.1251 53.125V84.375C28.1251 89.5508 32.3243 93.75 37.5001 93.75C42.6759 93.75 46.8751 89.5508 46.8751 84.375V53.125C46.8751 47.9492 42.6759 43.75 37.5001 43.75ZM14.0626 84.375C14.0626 85.2344 13.3595 85.9375 12.5001 85.9375C11.6407 85.9375 10.9376 85.2344 10.9376 84.375V71.875C10.9376 71.0157 11.6407 70.3125 12.5001 70.3125C13.3595 70.3125 14.0626 71.0157 14.0626 71.875V84.375ZM12.5001 62.5C7.32433 62.5 3.12511 66.6992 3.12511 71.875V84.375C3.12511 89.5508 7.32433 93.75 12.5001 93.75C17.6759 93.75 21.8751 89.5508 21.8751 84.375V71.875C21.8751 66.6992 17.6759 62.5 12.5001 62.5ZM64.0626 65.625V84.375C64.0626 85.2344 63.3595 85.9375 62.5001 85.9375C61.6407 85.9375 60.9376 85.2344 60.9376 84.375V65.625C60.9376 64.7657 61.6407 64.0625 62.5001 64.0625C63.3595 64.0625 64.0626 64.7657 64.0626 65.625ZM53.1251 65.625V84.375C53.1251 89.5508 57.3243 93.75 62.5001 93.75C67.6759 93.75 71.8751 89.5508 71.8751 84.375V65.625C71.8751 60.4492 67.6759 56.25 62.5001 56.25C57.3243 56.25 53.1251 60.4492 53.1251 65.625ZM89.0626 84.375C89.0626 85.2344 88.3595 85.9375 87.5001 85.9375C86.6407 85.9375 85.9376 85.2344 85.9376 84.375V53.125C85.9376 52.2657 86.6407 51.5625 87.5001 51.5625C88.3595 51.5625 89.0626 52.2657 89.0626 53.125V84.375ZM87.5001 43.75C82.3243 43.75 78.1251 47.9492 78.1251 53.125V84.375C78.1251 89.5508 82.3243 93.75 87.5001 93.75C92.6759 93.75 96.8751 89.5508 96.8751 84.375V53.125C96.8751 47.9492 92.6759 43.75 87.5001 43.75Z" fill="#22C55E"/>
</svg>
