<svg width="125" height="100" viewBox="0 0 125 100" fill="none" xmlns="http://www.w3.org/2000/svg">
<g clip-path="url(#clip0_125_13)">
<path d="M13.5352 0.78125C11.3867 -0.644531 8.47656 -0.0585938 7.03125 2.08984C5.58594 4.23828 6.17188 7.14844 8.33984 8.59375L17.7148 14.8438C19.8633 16.2891 22.7734 15.7031 24.2188 13.5352C25.6641 11.3672 25.0781 8.47656 22.9102 7.03125L13.5352 0.78125ZM116.66 8.59375C118.809 7.14844 119.395 4.23828 117.969 2.08984C116.543 -0.0585938 113.613 -0.644531 111.465 0.78125L102.09 7.03125C99.9414 8.47656 99.3555 11.3867 100.781 13.5352C102.207 15.6836 105.137 16.2695 107.285 14.8438L116.66 8.59375ZM4.6875 31.25C2.08984 31.25 0 33.3398 0 35.9375C0 38.5352 2.08984 40.625 4.6875 40.625H17.1875C19.7852 40.625 21.875 38.5352 21.875 35.9375C21.875 33.3398 19.7852 31.25 17.1875 31.25H4.6875ZM107.812 31.25C105.215 31.25 103.125 33.3398 103.125 35.9375C103.125 38.5352 105.215 40.625 107.812 40.625H120.312C122.91 40.625 125 38.5352 125 35.9375C125 33.3398 122.91 31.25 120.312 31.25H107.812ZM22.9102 64.8438C25.0586 63.3984 25.6445 60.4883 24.2188 58.3398C22.793 56.1914 19.8633 55.6055 17.7148 57.0312L8.33984 63.2812C6.19141 64.7266 5.60547 67.6367 7.03125 69.7852C8.45703 71.9336 11.3867 72.5195 13.5352 71.0938L22.9102 64.8438ZM107.285 57.0508C105.137 55.6055 102.227 56.1914 100.781 58.3594C99.3359 60.5273 99.9219 63.418 102.09 64.8633L111.465 71.1133C113.613 72.5586 116.523 71.9727 117.969 69.8047C119.414 67.6367 118.828 64.7461 116.66 63.3008L107.285 57.0508ZM87.5 34.375C87.5 39.6875 85.8594 44.5898 83.0469 48.6133C82.3242 49.6484 81.4844 50.8203 80.5664 52.0703C78.0469 55.5273 75.0391 59.668 72.793 63.75C70.7617 67.4609 69.7266 71.3281 69.2188 74.9805H78.7109C79.1406 72.6367 79.8633 70.3516 81.0156 68.2422C82.9492 64.7266 85.3516 61.4258 87.7539 58.125C88.7695 56.7383 89.7852 55.3516 90.7617 53.9453C94.6289 48.3789 96.8945 41.6406 96.8945 34.3555C96.875 15.3906 81.4844 0 62.5 0C43.5156 0 28.125 15.3906 28.125 34.375C28.125 41.6602 30.3906 48.418 34.2578 53.9648C35.2344 55.3711 36.25 56.7578 37.2656 58.1445C39.668 61.4258 42.0703 64.7266 44.0039 68.2617C45.1562 70.3711 45.8789 72.6562 46.3086 75H55.8008C55.293 71.3477 54.2578 67.4609 52.2266 63.7695C49.9805 59.6875 46.9727 55.5469 44.4531 52.0898C43.5352 50.8398 42.6953 49.668 41.9531 48.6328C39.1406 44.5898 37.5 39.6875 37.5 34.375C37.5 20.5664 48.6914 9.375 62.5 9.375C76.3086 9.375 87.5 20.5664 87.5 34.375ZM53.125 34.375C53.125 29.1992 57.3242 25 62.5 25C64.2188 25 65.625 23.5938 65.625 21.875C65.625 20.1562 64.2188 18.75 62.5 18.75C53.8672 18.75 46.875 25.7422 46.875 34.375C46.875 36.0938 48.2812 37.5 50 37.5C51.7188 37.5 53.125 36.0938 53.125 34.375ZM78.125 84.375V81.25H46.875V84.375C46.875 93.0078 53.8672 100 62.5 100C71.1328 100 78.125 93.0078 78.125 84.375Z" fill="#22C55E"/>
</g>
<defs>
<clipPath id="clip0_125_13">
<rect width="125" height="100" fill="white"/>
</clipPath>
</defs>
</svg>
