<svg width="206" height="35" viewBox="0 0 206 35" fill="none" xmlns="http://www.w3.org/2000/svg">
<path d="M24.52 27.545V8.715H29.735V14.035L29 12.495C29.56 11.165 30.4584 10.1617 31.695 9.485C32.9317 8.785 34.4367 8.435 36.21 8.435V13.475C35.9767 13.4517 35.7667 13.44 35.58 13.44C35.3934 13.4167 35.195 13.405 34.985 13.405C33.4917 13.405 32.2784 13.8367 31.345 14.7C30.435 15.54 29.98 16.8583 29.98 18.655V27.545H24.52Z" fill="#B5EEB5"/>
<path d="M48.6648 27.825C46.5182 27.825 44.6282 27.405 42.9948 26.565C41.3848 25.725 40.1365 24.5817 39.2498 23.135C38.3632 21.665 37.9198 19.9967 37.9198 18.13C37.9198 16.24 38.3515 14.5717 39.2148 13.125C40.1015 11.655 41.3032 10.5117 42.8198 9.695C44.3365 8.855 46.0515 8.435 47.9648 8.435C49.8082 8.435 51.4648 8.83167 52.9348 9.625C54.4282 10.395 55.6065 11.515 56.4698 12.985C57.3332 14.4317 57.7648 16.17 57.7648 18.2C57.7648 18.41 57.7532 18.655 57.7298 18.935C57.7065 19.1917 57.6832 19.4367 57.6598 19.67H42.3648V16.485H54.7898L52.6898 17.43C52.6898 16.45 52.4915 15.5983 52.0948 14.875C51.6982 14.1517 51.1498 13.5917 50.4498 13.195C49.7498 12.775 48.9332 12.565 47.9998 12.565C47.0665 12.565 46.2382 12.775 45.5148 13.195C44.8148 13.5917 44.2665 14.1633 43.8698 14.91C43.4732 15.6333 43.2748 16.4967 43.2748 17.5V18.34C43.2748 19.3667 43.4965 20.2767 43.9398 21.07C44.4065 21.84 45.0482 22.435 45.8648 22.855C46.7048 23.2517 47.6848 23.45 48.8048 23.45C49.8082 23.45 50.6832 23.2983 51.4298 22.995C52.1998 22.6917 52.8998 22.2367 53.5298 21.63L56.4348 24.78C55.5715 25.76 54.4865 26.5183 53.1798 27.055C51.8732 27.5683 50.3682 27.825 48.6648 27.825Z" fill="#B5EEB5"/>
<path d="M70.7449 27.825C68.5982 27.825 66.7082 27.405 65.0749 26.565C63.4649 25.725 62.2166 24.5817 61.3299 23.135C60.4432 21.665 59.9999 19.9967 59.9999 18.13C59.9999 16.24 60.4316 14.5717 61.2949 13.125C62.1816 11.655 63.3832 10.5117 64.8999 9.695C66.4166 8.855 68.1316 8.435 70.0449 8.435C71.8882 8.435 73.5449 8.83167 75.0149 9.625C76.5082 10.395 77.6866 11.515 78.5499 12.985C79.4132 14.4317 79.8449 16.17 79.8449 18.2C79.8449 18.41 79.8332 18.655 79.8099 18.935C79.7866 19.1917 79.7632 19.4367 79.7399 19.67H64.4449V16.485H76.8699L74.7699 17.43C74.7699 16.45 74.5716 15.5983 74.1749 14.875C73.7782 14.1517 73.2299 13.5917 72.5299 13.195C71.8299 12.775 71.0132 12.565 70.0799 12.565C69.1466 12.565 68.3182 12.775 67.5949 13.195C66.8949 13.5917 66.3466 14.1633 65.9499 14.91C65.5532 15.6333 65.3549 16.4967 65.3549 17.5V18.34C65.3549 19.3667 65.5766 20.2767 66.0199 21.07C66.4866 21.84 67.1282 22.435 67.9449 22.855C68.7849 23.2517 69.7649 23.45 70.8849 23.45C71.8882 23.45 72.7632 23.2983 73.5099 22.995C74.2799 22.6917 74.9799 22.2367 75.6099 21.63L78.5149 24.78C77.6516 25.76 76.5666 26.5183 75.2599 27.055C73.9532 27.5683 72.4482 27.825 70.7449 27.825Z" fill="#B5EEB5"/>
<path d="M94.925 8.435C96.4183 8.435 97.7483 8.73833 98.915 9.345C100.105 9.92833 101.038 10.8383 101.715 12.075C102.392 13.2883 102.73 14.8517 102.73 16.765V27.545H97.27V17.605C97.27 16.0883 96.9316 14.9683 96.255 14.245C95.6016 13.5217 94.6683 13.16 93.455 13.16C92.5916 13.16 91.81 13.3467 91.11 13.72C90.4333 14.07 89.8967 14.6183 89.5 15.365C89.1266 16.1117 88.94 17.0683 88.94 18.235V27.545H83.48V8.715H88.695V13.93L87.715 12.355C88.3916 11.095 89.36 10.1267 90.62 9.45C91.88 8.77334 93.315 8.435 94.925 8.435Z" fill="#B5EEB5"/>
<path d="M119.229 27.545V23.87L118.879 23.065V16.485C118.879 15.3183 118.518 14.4083 117.794 13.755C117.094 13.1017 116.009 12.775 114.539 12.775C113.536 12.775 112.544 12.9383 111.564 13.265C110.608 13.5683 109.791 13.9883 109.114 14.525L107.154 10.71C108.181 9.98667 109.418 9.42667 110.864 9.03C112.311 8.63334 113.781 8.435 115.274 8.435C118.144 8.435 120.373 9.11167 121.959 10.465C123.546 11.8183 124.339 13.93 124.339 16.8V27.545H119.229ZM113.489 27.825C112.019 27.825 110.759 27.58 109.709 27.09C108.659 26.5767 107.854 25.8883 107.294 25.025C106.734 24.1617 106.454 23.1933 106.454 22.12C106.454 21 106.723 20.02 107.259 19.18C107.819 18.34 108.694 17.6867 109.884 17.22C111.074 16.73 112.626 16.485 114.539 16.485H119.544V19.67H115.134C113.851 19.67 112.964 19.88 112.474 20.3C112.008 20.72 111.774 21.245 111.774 21.875C111.774 22.575 112.043 23.135 112.579 23.555C113.139 23.9517 113.898 24.15 114.854 24.15C115.764 24.15 116.581 23.94 117.304 23.52C118.028 23.0767 118.553 22.435 118.879 21.595L119.719 24.115C119.323 25.3283 118.599 26.25 117.549 26.88C116.499 27.51 115.146 27.825 113.489 27.825Z" fill="#B5EEB5"/>
<path d="M129.281 27.545V1.575H134.741V27.545H129.281Z" fill="#B5EEB5"/>
<path d="M142.188 34.615C141.208 34.615 140.24 34.4633 139.283 34.16C138.326 33.8567 137.545 33.4367 136.938 32.9L138.933 29.015C139.353 29.3883 139.831 29.68 140.368 29.89C140.928 30.1 141.476 30.205 142.013 30.205C142.783 30.205 143.39 30.0183 143.833 29.645C144.3 29.295 144.72 28.7 145.093 27.86L146.073 25.55L146.493 24.955L153.248 8.715H158.498L149.993 28.7C149.386 30.2167 148.686 31.4067 147.893 32.27C147.123 33.1333 146.26 33.74 145.303 34.09C144.37 34.44 143.331 34.615 142.188 34.615ZM145.408 28.28L137.008 8.715H142.643L149.153 24.465L145.408 28.28Z" fill="#B5EEB5"/>
<path d="M168.939 27.825C166.722 27.825 164.995 27.265 163.759 26.145C162.522 25.0017 161.904 23.31 161.904 21.07V4.55H167.364V21C167.364 21.7933 167.574 22.4117 167.994 22.855C168.414 23.275 168.985 23.485 169.709 23.485C170.572 23.485 171.307 23.2517 171.914 22.785L173.384 26.635C172.824 27.0317 172.147 27.335 171.354 27.545C170.584 27.7317 169.779 27.825 168.939 27.825ZM158.999 13.335V9.135H172.054V13.335H158.999Z" fill="#B5EEB5"/>
<path d="M176.449 27.545V8.715H181.909V27.545H176.449ZM179.179 6.09C178.175 6.09 177.359 5.79833 176.729 5.215C176.099 4.63167 175.784 3.90833 175.784 3.045C175.784 2.18167 176.099 1.45833 176.729 0.875001C177.359 0.291667 178.175 0 179.179 0C180.182 0 180.999 0.280001 181.629 0.840002C182.259 1.37667 182.574 2.07667 182.574 2.94C182.574 3.85 182.259 4.60833 181.629 5.215C181.022 5.79833 180.205 6.09 179.179 6.09Z" fill="#B5EEB5"/>
<path d="M184.596 27.545L193.031 16.485L192.926 19.495L184.841 8.715H190.966L196.076 15.75L193.766 15.82L199.051 8.715H204.861L196.741 19.39V16.45L205.141 27.545H198.946L193.591 20.055L195.866 20.37L190.546 27.545H184.596Z" fill="#B5EEB5"/>
<mask id="mask0_9_222" style="mask-type:alpha" maskUnits="userSpaceOnUse" x="0" y="8" width="21" height="27">
<path d="M10.255 34.725C8.48167 34.725 6.76667 34.5034 5.11 34.06C3.47667 33.64 2.11167 32.9984 1.015 32.135L3.185 28.215C3.97833 28.8684 4.98167 29.3817 6.195 29.755C7.43167 30.1517 8.645 30.35 9.835 30.35C11.7717 30.35 13.1717 29.9184 14.035 29.055C14.9217 28.1917 15.365 26.9084 15.365 25.205V22.37L15.715 17.645L15.645 12.885V8.82504H20.825V24.505C20.825 28.005 19.915 30.5834 18.095 32.24C16.275 33.8967 13.6617 34.725 10.255 34.725ZM9.415 26.745C7.665 26.745 6.07833 26.3717 4.655 25.625C3.255 24.855 2.12333 23.7934 1.26 22.44C0.42 21.0634 0 19.465 0 17.645C0 15.8017 0.42 14.2034 1.26 12.85C2.12333 11.4734 3.255 10.4117 4.655 9.66504C6.07833 8.91838 7.665 8.54504 9.415 8.54504C11.0017 8.54504 12.4017 8.87171 13.615 9.52504C14.8283 10.155 15.7733 11.1467 16.45 12.5C17.1267 13.83 17.465 15.545 17.465 17.645C17.465 19.7217 17.1267 21.4367 16.45 22.79C15.7733 24.12 14.8283 25.1117 13.615 25.765C12.4017 26.4184 11.0017 26.745 9.415 26.745ZM10.5 22.265C11.4567 22.265 12.3083 22.0784 13.055 21.705C13.8017 21.3084 14.385 20.76 14.805 20.06C15.225 19.36 15.435 18.555 15.435 17.645C15.435 16.7117 15.225 15.9067 14.805 15.23C14.385 14.53 13.8017 13.9934 13.055 13.62C12.3083 13.2234 11.4567 13.025 10.5 13.025C9.54333 13.025 8.69167 13.2234 7.945 13.62C7.19833 13.9934 6.60333 14.53 6.16 15.23C5.74 15.9067 5.53 16.7117 5.53 17.645C5.53 18.555 5.74 19.36 6.16 20.06C6.60333 20.76 7.19833 21.3084 7.945 21.705C8.69167 22.0784 9.54333 22.265 10.5 22.265Z" fill="#B5EEB5"/>
</mask>
<g mask="url(#mask0_9_222)">
<rect x="-5.89136" y="14.9067" width="1.58965" height="10.7104" transform="rotate(-30 -5.89136 14.9067)" fill="#08306C"/>
<rect x="-4.5144" y="14.1118" width="1.58965" height="10.7104" transform="rotate(-30 -4.5144 14.1118)" fill="#08306C"/>
<rect x="-3.13843" y="13.3171" width="1.58965" height="10.7104" transform="rotate(-30 -3.13843 13.3171)" fill="#08529D"/>
<rect x="-1.76147" y="12.5223" width="1.58965" height="10.7104" transform="rotate(-30 -1.76147 12.5223)" fill="#9FCBE2"/>
<rect x="-0.384277" y="11.7275" width="1.58965" height="10.7104" transform="rotate(-30 -0.384277 11.7275)" fill="#4292C7"/>
<rect x="0.992432" y="10.9325" width="1.58965" height="10.7104" transform="rotate(-30 0.992432 10.9325)" fill="#DFEBF7"/>
<rect x="2.3689" y="10.1378" width="1.58965" height="10.7104" transform="rotate(-30 2.3689 10.1378)" fill="#C6DCF0"/>
<rect x="3.74561" y="9.34302" width="1.58965" height="10.7104" transform="rotate(-30 3.74561 9.34302)" fill="#C6DCF0"/>
<rect x="5.12183" y="8.54822" width="1.58965" height="10.7104" transform="rotate(-30 5.12183 8.54822)" fill="#9FCBE2"/>
<rect x="6.49878" y="7.75342" width="1.58965" height="10.7104" transform="rotate(-30 6.49878 7.75342)" fill="#FEE1D2"/>
<rect x="7.87549" y="6.95837" width="1.58965" height="10.7104" transform="rotate(-30 7.87549 6.95837)" fill="#FDBBA1"/>
<rect x="9.25244" y="6.1637" width="1.58965" height="10.7104" transform="rotate(-30 9.25244 6.1637)" fill="#DFEBF7"/>
<rect x="10.6292" y="5.3689" width="1.58965" height="10.7104" transform="rotate(-30 10.6292 5.3689)" fill="#FB6A4B"/>
<rect x="12.0056" y="4.5741" width="1.58965" height="10.7104" transform="rotate(-30 12.0056 4.5741)" fill="#EE3A2C"/>
<rect x="13.3823" y="3.7793" width="1.58965" height="10.7104" transform="rotate(-30 13.3823 3.7793)" fill="#CB181C"/>
<rect x="14.759" y="2.98438" width="1.58965" height="10.7104" transform="rotate(-30 14.759 2.98438)" fill="#A50F18"/>
<rect x="16.1355" y="2.18958" width="1.58965" height="10.7104" transform="rotate(-30 16.1355 2.18958)" fill="#68000C"/>
<rect x="-4.66577" y="26.5673" width="1.58965" height="17.3559" transform="rotate(-30 -4.66577 26.5673)" fill="#34C132"/>
<rect x="-3.28931" y="25.7722" width="1.58965" height="17.3559" transform="rotate(-30 -3.28931 25.7722)" fill="#4ECA2A"/>
<rect x="-1.91235" y="24.9774" width="1.58965" height="17.3559" transform="rotate(-30 -1.91235 24.9774)" fill="#38C22F"/>
<rect x="-0.5354" y="24.1825" width="1.58965" height="17.3559" transform="rotate(-30 -0.5354 24.1825)" fill="#52CA2A"/>
<rect x="0.840576" y="23.3877" width="1.58965" height="17.3559" transform="rotate(-30 0.840576 23.3877)" fill="#7DD91F"/>
<rect x="2.21753" y="22.5929" width="1.58965" height="17.3559" transform="rotate(-30 2.21753 22.5929)" fill="#99E119"/>
<rect x="3.59448" y="21.7981" width="1.58965" height="17.3559" transform="rotate(-30 3.59448 21.7981)" fill="#A2E317"/>
<rect x="4.97144" y="21.0033" width="1.58965" height="17.3559" transform="rotate(-30 4.97144 21.0033)" fill="#D4F008"/>
<rect x="6.3479" y="20.2084" width="1.58965" height="17.3559" transform="rotate(-30 6.3479 20.2084)" fill="#B2E814"/>
<rect x="7.72437" y="19.4136" width="1.58965" height="17.3559" transform="rotate(-30 7.72437 19.4136)" fill="#EBF904"/>
<rect x="9.10132" y="18.6188" width="1.58965" height="17.3559" transform="rotate(-30 9.10132 18.6188)" fill="#FDFE00"/>
<rect x="10.4778" y="17.824" width="1.58965" height="17.3559" transform="rotate(-30 10.4778 17.824)" fill="#DCF40A"/>
<rect x="11.8538" y="17.0292" width="1.58965" height="17.3559" transform="rotate(-30 11.8538 17.0292)" fill="#FDFE00"/>
<rect x="13.2307" y="16.2343" width="1.58965" height="17.3559" transform="rotate(-30 13.2307 16.2343)" fill="#E9E944"/>
<rect x="14.6082" y="15.4395" width="1.58965" height="17.3559" transform="rotate(-30 14.6082 15.4395)" fill="#E7E842"/>
<rect x="15.9841" y="14.6448" width="1.58965" height="17.3559" transform="rotate(-30 15.9841 14.6448)" fill="#D7D679"/>
<rect x="17.3616" y="13.85" width="1.58965" height="17.3559" transform="rotate(-30 17.3616 13.85)" fill="#D7D679"/>
<rect x="18.738" y="13.0551" width="1.58965" height="17.3559" transform="rotate(-30 18.738 13.0551)" fill="#C8C99F"/>
<rect x="20.1145" y="12.2601" width="1.58965" height="17.3559" transform="rotate(-30 20.1145 12.2601)" fill="#C7C6A7"/>
</g>
</svg>
