<svg width="113" height="100" viewBox="0 0 113 100" fill="none" xmlns="http://www.w3.org/2000/svg">
<g clip-path="url(#clip0_125_9)">
<path d="M12.5 9.375H62.5C64.2188 9.375 65.625 10.7812 65.625 12.5V43.0664C68.4766 41.2109 71.6406 39.7461 75 38.8086V12.5C75 5.60547 69.3945 0 62.5 0H12.5C5.60547 0 0 5.60547 0 12.5V87.5C0 94.3945 5.60547 100 12.5 100H62.5C63.1445 100 63.7891 99.9414 64.3945 99.8633C60.8984 97.3633 57.8906 94.2383 55.5469 90.625H12.5C10.7812 90.625 9.375 89.2188 9.375 87.5V12.5C9.375 10.7812 10.7812 9.375 12.5 9.375ZM23.4375 25C20.8398 25 18.75 27.0898 18.75 29.6875C18.75 32.2852 20.8398 34.375 23.4375 34.375H51.5625C54.1602 34.375 56.25 32.2852 56.25 29.6875C56.25 27.0898 54.1602 25 51.5625 25H23.4375ZM23.4375 43.75C20.8398 43.75 18.75 45.8398 18.75 48.4375C18.75 51.0352 20.8398 53.125 23.4375 53.125H51.5625C54.1602 53.125 56.25 51.0352 56.25 48.4375C56.25 45.8398 54.1602 43.75 51.5625 43.75H23.4375ZM23.4375 62.5C20.8398 62.5 18.75 64.5898 18.75 67.1875C18.75 69.7852 20.8398 71.875 23.4375 71.875H32.8125C35.4102 71.875 37.5 69.7852 37.5 67.1875C37.5 64.5898 35.4102 62.5 32.8125 62.5H23.4375ZM112.5 71.875C112.5 64.4158 109.537 57.2621 104.262 51.9876C98.9879 46.7132 91.8342 43.75 84.375 43.75C76.9158 43.75 69.7621 46.7132 64.4876 51.9876C59.2132 57.2621 56.25 64.4158 56.25 71.875C56.25 79.3342 59.2132 86.4879 64.4876 91.7624C69.7621 97.0368 76.9158 100 84.375 100C91.8342 100 98.9879 97.0368 104.262 91.7624C109.537 86.4879 112.5 79.3342 112.5 71.875ZM97.5195 63.418C98.7305 64.6289 98.7305 66.6211 97.5195 67.832L83.457 81.8945C82.2461 83.1055 80.2539 83.1055 79.043 81.8945L71.2305 74.082C70.0195 72.8711 70.0195 70.8789 71.2305 69.668C72.4414 68.457 74.4336 68.457 75.6445 69.668L81.25 75.2734L93.1055 63.418C94.3164 62.207 96.3086 62.207 97.5195 63.418Z" fill="#22C55E"/>
</g>
<defs>
<clipPath id="clip0_125_9">
<rect width="112.5" height="100" fill="white"/>
</clipPath>
</defs>
</svg>
